#!OML:ASF E:\id_vita\Project 1\Capture day 1\Session 1\Female.ASF
:FULLY-SPECIFIED
:DEGREES
1155
root -9.32932 12.7512 -0.288427 -133.661 -83.2462 -168.897
lowerback -1.3697 1.58262 -3.3797
upperback -1.73293 2.09236 -2.19236
thorax -1.04994 1.06116 -0.347237
lowerneck -2.13695 1.3095 2.15082
upperneck 6.17274 1.68354 -1.15606
head 2.34012 0.838879 -0.689562
rclavicle -9.14409e-015 -3.20043e-014
rhumerus 16.4276 26.1001 -71.0752
rradius 41.0912
rwrist 22.2843
rhand -44.1156 624.012
rfingers 7.12502
rthumb -16.9325 66.706
lclavicle -9.14409e-015 -3.20043e-014
lhumerus 16.1186 -36.1718 69.241
lradius 46.841
lwrist -13.8683
lhand -62.1943 448.557
lfingers 7.12502
lthumb -34.2382 -835.288
rfemur -21.1157 9.48085 17.3517
rtibia 34.2096
rfoot 6.0264 12.8781
rtoes -3.4597
lfemur -95.0379 -0.389722 -30.1771
ltibia 96.824
lfoot -32.3027 15.0786
ltoes -18.0724
1156
root -9.41498 12.7833 -0.284408 -133.917 -83.3589 -168.591
lowerback -1.24364 1.56321 -3.30025
upperback -1.77032 2.05986 -2.12382
thorax -1.15791 1.04631 -0.325987
lowerneck -1.63667 1.3609 1.74161
upperneck 5.63454 1.76204 -0.857366
head 2.06453 0.877574 -0.524935
rclavicle 2.48481e-015 3.47873e-014
rhumerus 16.4214 26.3216 -70.943
rradius 40.9103
rwrist 22.2865
rhand -44.3363 623.877
rfingers 7.12502
rthumb -17.1449 66.8597
lclavicle 2.48481e-015 3.47873e-014
lhumerus 16.2092 -36.3313 69.2089
lradius 46.6128
lwrist -13.6192
lhand -62.3138 449.263
lfingers 7.12502
lthumb -34.3517 -835.968
rfemur -21.3798 9.39163 17.37
rtibia 34.4464
rfoot 7.59516 13.2476
rtoes -1.85724
lfemur -94.412 -0.415011 -30.1778
ltibia 96.3181
lfoot -32.2167 15.3523
ltoes -18.8092
1157
root -9.4971 12.8151 -0.279605 -134.128 -83.3848 -168.307
lowerback -1.06189 1.64462 -3.21907
upperback -1.83085 2.15728 -2.1602
thorax -1.31932 1.09613 -0.415735
lowerneck -2.06222 1.29138 1.32713
upperneck 6.1719 1.65501 -0.481408
head 2.30699 0.823824 -0.33542
rclavicle 8.89561e-015 -2.76808e-014
rhumerus 16.0597 26.1239 -71.0336
rradius 40.7888
rwrist 22.3469
rhand -44.368 623.905
rfingers 7.12502
rthumb -17.1754 66.8346
lclavicle 8.89561e-015 -2.76808e-014
lhumerus 16.2947 -36.6247 69.3187
lradius 46.4674
lwrist -13.6844
lhand -62.1243 449.428
lfingers 7.12502
lthumb -34.1717 -836.174
rfemur -21.7157 9.22524 17.336
rtibia 34.7241
rfoot 9.05959 13.7594
rtoes -1.15433
lfemur -93.8217 -0.418986 -30.2225
ltibia 95.7729
lfoot -32.0245 15.8327
ltoes -19.2029
1158
root -9.5755 12.8467 -0.274259 -133.738 -83.4157 -168.578
lowerback -1.10012 1.66633 -3.20525
upperback -1.73912 2.19188 -2.19023
thorax -1.20248 1.11155 -0.451005
lowerneck -2.40372 1.18103 1.07451
upperneck 6.25446 1.49645 -0.1458
head 2.38896 0.749132 -0.188326
rclavicle -1.68967e-015 3.55825e-014
rhumerus 16.3691 25.9568 -70.8528
rradius 40.3492
rwrist 22.4114
rhand -44.2098 624.015
rfingers 7.12502
rthumb -17.0232 66.7107
lclavicle -1.68967e-015 3.55825e-014
lhumerus 16.5201 -36.5998 69.4666
lradius 46.1997
lwrist -13.9808
lhand -62.108 269.547
lfingers 7.12502
lthumb -34.1563 -837.202
rfemur -22.1706 8.9683 17.25
rtibia 35.0729
rfoot 10.4244 14.3677
rtoes -0.793641
lfemur -93.2548 -0.51134 -30.1663
ltibia 95.2154
lfoot -32.1323 15.7743
ltoes -18.9846
1159
root -9.6559 12.878 -0.267572 -133.546 -83.4081 -168.656
lowerback -1.03893 1.63593 -3.22284
upperback -1.7323 2.14787 -2.21173
thorax -1.22896 1.0896 -0.464977
lowerneck -2.26275 1.3314 1.25935
upperneck 5.83571 1.71739 -0.520518
head 2.23284 0.854068 -0.333994
rclavicle -4.58696e-014 -2.21645e-014
rhumerus 16.5114 26.145 -70.8293
rradius 40.0376
rwrist 22.2087
rhand -44.0058 623.997
rfingers 7.12502
rthumb -16.8268 66.7121
lclavicle -4.58696e-014 -2.21645e-014
lhumerus 16.5261 -36.4882 69.5792
lradius 45.9513
lwrist -14.0197
lhand -62.2116 268.187
lfingers 7.12502
lthumb -34.2546 -838.54
rfemur -22.7152 8.68709 17.1608
rtibia 35.5758
rfoot 11.8263 14.9695
rtoes -0.694243
lfemur -92.6469 -0.550587 -30.1378
ltibia 94.6408
lfoot -32.0357 16.1673
ltoes -19.0464
1160
root -9.73441 12.9158 -0.261035 -132.609 -83.249 -169.526
lowerback -0.888693 1.62158 -3.42287
upperback -1.70408 2.1205 -2.26886
thorax -1.28936 1.07783 -0.416322
lowerneck -2.16579 1.35955 1.82427
upperneck 5.44995 1.7721 -1.17365
head 2.10486 0.877995 -0.636212
rclavicle -2.13694e-015 3.69243e-014
rhumerus 16.7007 26.3915 -70.7237
rradius 39.8422
rwrist 21.9423
rhand -44.007 623.781
rfingers 7.12502
rthumb -16.828 66.928
lclavicle -2.13694e-015 3.69243e-014
lhumerus 16.7223 -36.4215 69.5369
lradius 45.6073
lwrist -14.128
lhand -61.9912 268.029
lfingers 7.12502
lthumb -34.0454 -838.745
rfemur -23.3141 8.33439 16.913
rtibia 36.2337
rfoot 13.2425 15.6813
rtoes -1.26339
lfemur -91.9805 -0.552247 -30.3628
ltibia 94.0167
lfoot -32.1368 15.7531
ltoes -18.6282
1161
root -9.80642 12.9603 -0.258126 -131.575 -83.2305 -170.53
lowerback -0.593032 1.62998 -3.55619
upperback -1.6737 2.11722 -2.27333
thorax -1.42891 1.07925 -0.355587
lowerneck -2.24907 1.26315 1.52194
upperneck 5.23449 1.65015 -1.03249
head 2.0418 0.815751 -0.542664
rclavicle 2.41026e-014 7.29788e-014
rhumerus 16.8563 26.3671 -70.5477
rradius 39.5789
rwrist 22.1981
rhand -44.2446 623.476
rfingers 7.12502
rthumb -17.0566 67.253
lclavicle 2.41026e-014 7.29788e-014
lhumerus 16.9808 -36.2847 69.7431
lradius 45.1346
lwrist -14.5373
lhand -61.7848 268.201
lfingers 7.12502
lthumb -33.8492 -838.616
rfemur -23.9791 7.96095 16.7888
rtibia 37.0425
rfoot 14.6014 16.2146
rtoes -1.00638
lfemur -91.4279 -0.588427 -30.5303
ltibia 93.3693
lfoot -31.9219 16.0818
ltoes -18.9509
1162
root -9.87569 13.0012 -0.25648 -132.141 -83.468 -169.87
lowerback -0.448647 1.62878 -3.36897
upperback -1.62013 2.11385 -2.21058
thorax -1.44991 1.07643 -0.39893
lowerneck -2.03036 1.23546 1.32497
upperneck 4.66746 1.61665 -0.836266
head 1.81329 0.801847 -0.449568
rclavicle 3.83157e-014 4.07509e-014
rhumerus 17.0402 26.2451 -70.4326
rradius 39.2786
rwrist 22.4826
rhand -44.2787 623.51
rfingers 7.12502
rthumb -17.0895 67.2215
lclavicle 3.83157e-014 4.07509e-014
lhumerus 17.2441 -36.1566 69.9103
lradius 44.7233
lwrist -14.7193
lhand -61.9776 267.556
lfingers 7.12502
lthumb -34.0324 -839.22
rfemur -24.7712 7.68214 17.0097
rtibia 37.8909
rfoot 15.9498 16.4028
rtoes 0.644704
lfemur -91.0556 -0.591559 -30.3686
ltibia 92.7467
lfoot -31.5567 15.5624
ltoes -17.8339
1163
root -9.94204 13.0313 -0.253087 -134.162 -83.7028 -167.702
lowerback -0.360247 1.63355 -2.96011
upperback -1.6518 2.11908 -2.18284
thorax -1.51756 1.0756 -0.601729
lowerneck -2.73638 1.24317 1.79449
upperneck 5.48575 1.63379 -1.53026
head 2.22197 0.799541 -0.745759
rclavicle 5.56597e-015 7.22085e-014
rhumerus 17.1804 26.3372 -70.4417
rradius 38.9806
rwrist 22.2914
rhand -44.1361 623.697
rfingers 7.12502
rthumb -16.9522 67.0224
lclavicle 5.56597e-015 7.22085e-014
lhumerus 17.3586 -36.275 69.8731
lradius 44.443
lwrist -14.5511
lhand -62.2111 266.957
lfingers 7.12502
lthumb -34.2542 -839.77
rfemur -25.7071 7.44271 17.3539
rtibia 38.9211
rfoot 16.978 16.6348
rtoes 1.51771
lfemur -90.5728 -0.538617 -29.9629
ltibia 92.2737
lfoot -31.7745 15.8326
ltoes -18.3117
1164
root -10.0239 13.0818 -0.249873 -135.213 -83.6624 -166.541
lowerback -0.366076 1.66307 -2.98769
upperback -1.5773 2.16305 -2.13912
thorax -1.44096 1.09771 -0.540263
lowerneck -2.62223 1.26512 1.75092
upperneck 5.05645 1.6625 -1.44054
head 2.05919 0.817099 -0.70886
rclavicle 1.56046e-014 2.50966e-015
rhumerus 17.5172 26.366 -70.3169
rradius 38.6569
rwrist 22.1796
rhand -44.2151 623.693
rfingers 7.12502
rthumb -17.0282 67.0329
lclavicle 1.56046e-014 2.50966e-015
lhumerus 17.7368 -36.4968 69.6581
lradius 44.2515
lwrist -14.2016
lhand -62.1958 266.635
lfingers 7.12502
lthumb -34.2396 -840.095
rfemur -26.5948 7.21534 17.4061
rtibia 39.9758
rfoot 17.6124 16.9868
rtoes 0.998867
lfemur -90.1702 -0.436871 -29.9085
ltibia 91.5865
lfoot -31.523 15.7019
ltoes -18.3682
1165
root -10.0877 13.1143 -0.249418 -134.648 -83.3999 -167.078
lowerback -0.149656 1.66052 -3.26598
upperback -1.55321 2.14585 -2.20509
thorax -1.54575 1.09233 -0.459314
lowerneck -2.61065 1.27646 1.78822
upperneck 4.78241 1.67975 -1.5005
head 1.96929 0.825966 -0.73353
rclavicle 3.12589e-014 3.51849e-014
rhumerus 17.7429 26.4155 -70.3665
rradius 38.3286
rwrist 22.2096
rhand -44.2945 623.579
rfingers 7.12502
rthumb -17.1047 67.1539
lclavicle 3.12589e-014 3.51849e-014
lhumerus 17.9691 -36.6242 69.3824
lradius 44.1348
lwrist -13.8547
lhand -62.1072 266.28
lfingers 7.12502
lthumb -34.1556 -840.469
rfemur -27.498 6.98694 17.1778
rtibia 41.2227
rfoot 17.7781 17.4015
rtoes -0.246727
lfemur -89.4645 -0.306784 -30.0969
ltibia 91.0402
lfoot -31.6915 15.8766
ltoes -18.39
1166
root -10.1606 13.1615 -0.243327 -134.01 -83.2207 -167.592
lowerback -0.0818991 1.67574 -3.39643
upperback -1.5387 2.16083 -2.24958
thorax -1.57253 1.10102 -0.434469
lowerneck -2.40831 1.28374 1.61691
upperneck 4.42575 1.69667 -1.44671
head 1.81474 0.834243 -0.687315
rclavicle 3.598e-014 -1.98785e-014
rhumerus 17.9837 26.4479 -70.2697
rradius 37.9506
rwrist 22.2881
rhand -44.2763 623.645
rfingers 7.12502
rthumb -17.0871 67.0862
lclavicle 3.598e-014 -1.98785e-014
lhumerus 18.1033 -36.5393 69.4814
lradius 43.9364
lwrist -13.8362
lhand -62.193 265.753
lfingers 7.12502
lthumb -34.237 -840.978
rfemur -28.5324 6.62462 17.0072
rtibia 42.4835
rfoot 17.5636 17.866
rtoes -3.27466
lfemur -89.1015 -0.211287 -30.3446
ltibia 90.3528
lfoot -31.4982 15.2023
ltoes -17.5511
1167
root -10.2261 13.193 -0.234315 -134.093 -83.3183 -167.523
lowerback 0.0855054 1.66311 -3.18861
upperback -1.49093 2.13988 -2.26219
thorax -1.60854 1.08813 -0.567169
lowerneck -2.45744 1.3315 1.84509
upperneck 4.42006 1.76516 -1.76586
head 1.83038 0.8651 -0.825154
rclavicle -3.4837e-014 -2.08227e-014
rhumerus 18.2247 26.3795 -70.2556
rradius 37.4991
rwrist 22.6195
rhand -44.2237 623.881
rfingers 7.12502
rthumb -17.0365 66.8459
lclavicle -3.4837e-014 -2.08227e-014
lhumerus 18.3708 -36.7582 69.3843
lradius 43.6755
lwrist -13.4324
lhand -62.4213 265.041
lfingers 7.12502
lthumb -34.4537 -841.641
rfemur -29.4738 6.14598 17.1247
rtibia 43.9431
rfoot 16.8164 18.0091
rtoes -4.46814
lfemur -88.4335 -0.290444 -30.2342
ltibia 89.7976
lfoot -31.491 15.4063
ltoes -17.5453
1168
root -10.296 13.2302 -0.227627 -134.332 -83.5322 -167.611
lowerback 0.586691 1.62184 -2.92736
upperback -1.33466 2.07053 -2.27977
thorax -1.71806 1.05041 -0.742198
lowerneck -2.71659 1.33312 2.16616
upperneck 4.52093 1.76758 -2.12485
head 1.91926 0.862607 -0.993507
rclavicle 2.51463e-014 -4.1049e-014
rhumerus 18.5007 26.2294 -70.3317
rradius 37.0835
rwrist 22.7672
rhand -44.0433 624.022
rfingers 7.12502
rthumb -16.8628 66.6906
lclavicle 2.51463e-014 -4.1049e-014
lhumerus 18.9382 -37.4013 68.7562
lradius 43.43
lwrist -12.4085
lhand -62.5836 263.872
lfingers 7.12502
lthumb -34.6078 -842.774
rfemur -30.063 5.60758 17.3666
rtibia 45.451
rfoot 15.5727 17.7802
rtoes -6.38835
lfemur -87.3479 -0.435102 -30.0037
ltibia 89.1845
lfoot -31.6207 15.1209
ltoes -17.5766
